<?xml version="1.0" ?><!DOCTYPE svg  PUBLIC '-//W3C//DTD SVG 1.1//EN'  'http://www.w3.org/Graphics/SVG/1.1/DTD/svg11.dtd'><svg enable-background="new 0 0 512 512" height="512px" id="Layer_1" version="1.1" viewBox="0 0 512 512" width="512px" xml:space="preserve" xmlns="http://www.w3.org/2000/svg" xmlns:xlink="http://www.w3.org/1999/xlink"><g><g><path d="M349.291,379.375H77.841c-5.523,0-10-4.477-10-10V219.563c0-5.523,4.477-10,10-10h0.178c5.005,0,9.24,3.701,9.91,8.661    c3.847,28.468,28.453,49.936,57.236,49.936s53.39-21.468,57.236-49.936c0.67-4.96,4.905-8.661,9.91-8.661h0.621    c5.523,0,10,4.477,10,10c0,31.854,25.915,57.768,57.768,57.768c31.854,0,57.768-25.915,57.768-57.768c0-5.523,4.477-10,10-10    h0.823c5.523,0,10,4.477,10,10v149.811C359.291,374.897,354.814,379.375,349.291,379.375z M87.841,359.375h251.45v-88.727    c-14.267,16.342-35.245,26.684-58.591,26.684c-31.025,0-57.866-18.265-70.336-44.604c-13.998,21.433-38.238,35.433-65.199,35.433    c-22.437,0-42.991-9.697-57.324-25.304V359.375z"/></g><g><path d="M434.602,355.624c-1.055,0-2.114-0.167-3.141-0.506l-86.134-28.5c-4.094-1.354-6.859-5.181-6.859-9.494v-43.067    c0-4.052,2.445-7.704,6.192-9.247l86.134-35.467c3.086-1.271,6.601-0.918,9.372,0.938c2.772,1.856,4.436,4.973,4.436,8.309    v107.035c0,3.21-1.542,6.226-4.144,8.106C438.732,354.977,436.679,355.624,434.602,355.624z M358.468,309.899l66.134,21.883    v-78.261l-66.134,27.232V309.899z"/></g><g><path d="M145.165,288.161c-38.748,0-71.875-28.915-77.057-67.258c-0.472-3.486-0.711-7.022-0.711-10.509    c0-42.881,34.886-77.768,77.768-77.768s77.768,34.886,77.768,77.768c0,3.487-0.239,7.023-0.711,10.511    C217.041,259.246,183.913,288.161,145.165,288.161z M145.165,152.625c-31.853,0-57.768,25.915-57.768,57.768    c0,2.593,0.179,5.227,0.531,7.83c3.847,28.47,28.454,49.938,57.237,49.938s53.39-21.468,57.236-49.936    c0.353-2.604,0.531-5.239,0.531-7.832C202.933,178.54,177.018,152.625,145.165,152.625z"/></g><g><path d="M280.7,297.332c-42.881,0-77.768-34.887-77.768-77.768s34.886-77.768,77.768-77.768s77.768,34.886,77.768,77.768    S323.582,297.332,280.7,297.332z M280.7,161.796c-31.853,0-57.768,25.915-57.768,57.768c0,31.854,25.915,57.768,57.768,57.768    c31.854,0,57.768-25.915,57.768-57.768C338.468,187.71,312.554,161.796,280.7,161.796z"/></g><g><path d="M176.832,345.491h-63.334c-5.523,0-10-4.477-10-10s4.477-10,10-10h63.334c5.523,0,10,4.477,10,10    S182.355,345.491,176.832,345.491z"/></g></g></svg>