<?xml version="1.0" ?><svg viewBox="0 0 512 512" xmlns="http://www.w3.org/2000/svg"><g data-name="4K" id="_4K"><path d="M461.1367,126.09a7.9993,7.9993,0,0,0-9.4228-7.872l-17.667,3.1923A1004.09,1004.09,0,0,1,256,137.3649,1004.1136,1004.1136,0,0,1,77.9521,121.41l-17.6669-3.1923a7.9987,7.9987,0,0,0-9.4224,7.872V385.9108a7.9987,7.9987,0,0,0,9.4224,7.8721l17.6669-3.1924a1001.4234,1001.4234,0,0,1,356.0958,0l17.6669,3.1924a7.9994,7.9994,0,0,0,9.4229-7.8721Zm-30.999,27.4834V358.4274a1028.5939,1028.5939,0,0,0-348.2749,0V153.5729A1028.5376,1028.5376,0,0,0,430.1377,153.5729Z"/><path d="M235.4126,264.195V239.2389a8,8,0,0,0-16,0V264.195H184.5112l37.7461-53.2881a8,8,0,0,0-13.0566-9.248l-46.688,65.9121a8,8,0,0,0,6.5283,12.624h50.3716v25.5225a8,8,0,0,0,16,0V280.195h18.7651a8,8,0,1,0,0-16Z"/><path d="M285.47,313.7175a8,8,0,0,0,8-8V270.2908l13.2455-12.7037,34.1618,50.47a8,8,0,0,0,13.25-8.9687l-35.6965-52.7377,34.6086-33.193a8,8,0,1,0-11.0743-11.5469L293.47,248.1226v-41.84a8,8,0,0,0-16,0v99.4346A8,8,0,0,0,285.47,313.7175Z"/></g></svg>