<svg class="fill-[#fd7e14]" width="50px" height="40px" viewBox="0 0 54.22 58.19"><path d="M27.11,9.75c-2.32,0-4.21-1.89-4.21-4.21c0-2.32,1.89-4.21,4.21-4.21c2.32,0,4.21,1.89,4.21,4.21 C31.32,7.86,29.43,9.75,27.11,9.75z M27.11,3.05c-1.37,0-2.49,1.12-2.49,2.49s1.12,2.49,2.49,2.49s2.49-1.12,2.49-2.49 S28.48,3.05,27.11,3.05z"></path><path d="M31.61,27.21H22.6c-0.48,0-0.86-0.39-0.86-0.86c0-0.48,0.39-0.86,0.86-0.86h9.01c0.48,0,0.86,0.39,0.86,0.86 C32.48,26.82,32.09,27.21,31.61,27.21z"></path><path d="M22.31,27.21c-1.51,0-1.68-0.03-1.75-0.05c-1.14-0.22-1.96-1.25-1.96-2.45v-8.63c0-2.79,2.09-5.14,4.87-5.46 c0.85-0.1,2.08-0.14,3.66-0.12c1.55-0.02,2.79,0.02,3.64,0.12c2.78,0.32,4.87,2.66,4.87,5.46v8.63c0,1.2-0.83,2.23-1.96,2.45 c-0.08,0.02-0.26,0.05-2.05,0.05c-0.48,0-0.86-0.39-0.86-0.86v-8.72c0-0.48,0.39-0.86,0.86-0.86c0.48,0,0.86,0.39,0.86,0.86v7.86 c0.44,0,0.81-0.01,0.91-0.02c0.28-0.05,0.52-0.38,0.52-0.75v-8.63c0-1.92-1.44-3.53-3.34-3.75c-0.78-0.09-1.94-0.13-3.44-0.11 c-1.52-0.02-2.68,0.02-3.46,0.11c-1.9,0.22-3.34,1.83-3.34,3.75v8.63c0,0.37,0.24,0.7,0.56,0.76c0.07,0.01,0.43,0.01,0.86,0.01 v-7.86c0-0.48,0.39-0.86,0.86-0.86c0.48,0,0.86,0.39,0.86,0.86v8.72c0,0.48-0.38,0.86-0.86,0.86C22.5,27.21,22.4,27.21,22.31,27.21 z"></path><path d="M13.31,56.75c-0.48,0-0.86-0.39-0.86-0.86v-4.11c0-0.48,0.39-0.86,0.86-0.86s0.86,0.39,0.86,0.86v4.11 C14.17,56.37,13.79,56.75,13.31,56.75z"></path><path d="M9.51,43.26c-2.27,0-4.12-1.85-4.12-4.12s1.85-4.12,4.12-4.12c2.27,0,4.12,1.85,4.12,4.12S11.78,43.26,9.51,43.26z M9.51,36.75c-1.32,0-2.39,1.07-2.39,2.39c0,1.32,1.07,2.39,2.39,2.39c1.32,0,2.39-1.07,2.39-2.39 C11.9,37.83,10.83,36.75,9.51,36.75z"></path><path d="M5.7,56.75c-0.48,0-0.86-0.39-0.86-0.86v-4.11c0-0.48,0.39-0.86,0.86-0.86c0.48,0,0.86,0.39,0.86,0.86v4.11 C6.57,56.37,6.18,56.75,5.7,56.75z"></path><path d="M30.91,56.75c-0.48,0-0.86-0.39-0.86-0.86v-4.11c0-0.48,0.39-0.86,0.86-0.86c0.48,0,0.86,0.39,0.86,0.86v4.11 C31.77,56.37,31.39,56.75,30.91,56.75z"></path><path d="M27.11,43.26c-2.27,0-4.12-1.85-4.12-4.12s1.85-4.12,4.12-4.12c2.27,0,4.12,1.85,4.12,4.12S29.38,43.26,27.11,43.26z M27.11,36.75c-1.32,0-2.39,1.07-2.39,2.39c0,1.32,1.07,2.39,2.39,2.39s2.39-1.07,2.39-2.39C29.5,37.83,28.43,36.75,27.11,36.75z"></path><path d="M23.31,56.75c-0.48,0-0.86-0.39-0.86-0.86v-4.11c0-0.48,0.39-0.86,0.86-0.86c0.48,0,0.86,0.39,0.86,0.86v4.11 C24.17,56.37,23.78,56.75,23.31,56.75z"></path><path d="M48.51,56.75c-0.48,0-0.86-0.39-0.86-0.86v-4.11c0-0.48,0.39-0.86,0.86-0.86c0.48,0,0.86,0.39,0.86,0.86v4.11 C49.38,56.37,48.99,56.75,48.51,56.75z"></path><path d="M44.71,43.26c-2.27,0-4.12-1.85-4.12-4.12s1.85-4.12,4.12-4.12s4.12,1.85,4.12,4.12S46.98,43.26,44.71,43.26z M44.71,36.75 c-1.32,0-2.39,1.07-2.39,2.39c0,1.32,1.07,2.39,2.39,2.39c1.32,0,2.39-1.07,2.39-2.39C47.1,37.83,46.03,36.75,44.71,36.75z"></path><path d="M40.91,56.75c-0.48,0-0.86-0.39-0.86-0.86v-4.11c0-0.48,0.39-0.86,0.86-0.86c0.48,0,0.86,0.39,0.86,0.86v4.11 C41.77,56.37,41.38,56.75,40.91,56.75z"></path><path d="M51.78,31.77H2.44C1.64,31.77,1,31.13,1,30.34v-3.42c0-0.79,0.64-1.44,1.44-1.44h49.35c0.79,0,1.44,0.64,1.44,1.44v3.42 C53.22,31.13,52.57,31.77,51.78,31.77z M2.72,30.05H61.5v-2.84H2.72V30.05z"></path><path d="M3.01,38.35c-0.48,0-0.86-0.39-0.86-0.86v-6.58c0-0.48,0.39-0.86,0.86-0.86c0.48,0,0.86,0.39,0.86,0.86v6.58 C3.87,37.97,3.48,38.35,3.01,38.35z"></path><path d="M51.21,38.35c-0.48,0-0.86-0.39-0.86-0.86v-6.58c0-0.48,0.39-0.86,0.86-0.86c0.48,0,0.86,0.39,0.86,0.86v6.58 C52.07,37.97,51.69,38.35,51.21,38.35z"></path><path d="M16.95,56.75H2.07c-0.48,0-0.86-0.39-0.86-0.86v-6.5c0-2.73,2.04-5.02,4.75-5.33c0.47-0.06,0.9,0.28,0.95,0.76 s-0.29,0.9-0.76,0.95c-1.84,0.21-3.23,1.77-3.23,3.62v5.63h13.16V49.4c0-1.85-1.39-3.41-3.23-3.62c-0.47-0.05-0.81-0.48-0.76-0.95 c0.05-0.47,0.49-0.81,0.95-0.76c2.71,0.31,4.75,2.6,4.75,5.33v6.5C17.81,56.37,17.42,56.75,16.95,56.75z"></path><path d="M34.55,56.75H19.67c-0.48,0-0.86-0.39-0.86-0.86v-6.5c0-2.73,2.04-5.02,4.75-5.33c0.47-0.06,0.9,0.28,0.95,0.76 c0.05,0.47-0.29,0.9-0.76,0.95c-1.84,0.21-3.23,1.77-3.23,3.62v5.63h13.16V49.4c0-1.85-1.39-3.41-3.23-3.62 c-0.47-0.05-0.81-0.48-0.76-0.95c0.05-0.47,0.49-0.81,0.95-0.76c2.71,0.31,4.75,2.6,4.75,5.33v6.5 C35.41,56.37,35.02,56.75,34.55,56.75z"></path><path d="M52.15,56.75H37.27c-0.48,0-0.86-0.39-0.86-0.86v-6.5c0-2.73,2.04-5.02,4.75-5.33c0.47-0.06,0.9,0.28,0.95,0.76 s-0.29,0.9-0.76,0.95c-1.84,0.21-3.23,1.77-3.23,3.62v5.63h13.15V49.4c0-1.85-1.39-3.41-3.23-3.62c-0.47-0.05-0.81-0.48-0.76-0.95 c0.05-0.47,0.49-0.81,0.95-0.76c2.71,0.31,4.75,2.6,4.75,5.33v6.5C53.01,56.37,52.63,56.75,52.15,56.75z"></path></svg>