<?xml version="1.0" ?><!DOCTYPE svg  PUBLIC '-//W3C//DTD SVG 1.1//EN'  'http://www.w3.org/Graphics/SVG/1.1/DTD/svg11.dtd'><svg height="32px" style="fill-rule:evenodd;clip-rule:evenodd;stroke-linejoin:round;stroke-miterlimit:2;" version="1.1" width="32px" xml:space="preserve" xmlns="http://www.w3.org/2000/svg" xmlns:serif="http://www.serif.com/" xmlns:xlink="http://www.w3.org/1999/xlink"><g id="Layer2"><path d="M10.5,5c0,-0 0,5.398 0,6.598c-0,0.397 0.158,0.779 0.439,1.06l1.561,1.563l-0,1.469c-0,0 -6.073,3.03 -7.171,3.578c-0.508,0.254 -0.829,0.774 -0.829,1.342l-0,6.39c0,0.828 0.672,1.5 1.5,1.5l2.999,0l0.001,0c0,0 13.218,0 17,0c0.398,0 0.779,-0.158 1.061,-0.439c0.281,-0.282 0.439,-0.663 0.439,-1.061l-0,-6.39c-0,-0.568 -0.321,-1.088 -0.829,-1.342c-1.098,-0.548 -7.171,-3.577 -7.171,-3.577l0,-1.484l1.561,-1.561c0.281,-0.281 0.439,-0.663 0.439,-1.06l0,-6.586c-0,-0.828 -0.672,-1.5 -1.5,-1.5l-8,0c-0.828,0 -1.5,0.672 -1.5,1.5Zm-1,13.302l-0,9.198l13,0l-0,-9.191c-0,0 -2.996,-1.498 -3,-1.5l0,0.656c-0,0.501 -0.251,0.97 -0.668,1.248l-2.332,1.555l0,4.732c0,0.276 -0.224,0.5 -0.5,0.5c-0.276,-0 -0.5,-0.224 -0.5,-0.5l0,-4.732l-2.332,-1.555c-0.417,-0.278 -0.668,-0.747 -0.668,-1.248l-0,-0.657l-3,1.494Zm14,0.499l0,8.699l2.5,0c0.133,0 0.26,-0.053 0.354,-0.146c0.093,-0.094 0.146,-0.221 0.146,-0.354c-0,0 -0,-6.39 -0,-6.39c-0,-0.189 -0.107,-0.363 -0.276,-0.447l-2.724,-1.362Zm-15,0l-2.724,1.362c-0.169,0.085 -0.276,0.258 -0.276,0.447l-0,6.39c0,0.276 0.224,0.5 0.5,0.5l2.5,0l-0,-8.699Zm10,-1.336l0,-2.258l-0.111,0.112l-1.141,1.71c-0.278,0.418 -0.746,0.668 -1.248,0.668c-0.502,0 -0.97,-0.25 -1.248,-0.668l-1.109,-1.664l-0.143,-0.142l-0,2.242c0,0.167 0.084,0.323 0.223,0.416c-0,-0 2.277,1.518 2.277,1.518c0,0 2.277,-1.518 2.277,-1.518c0.139,-0.093 0.223,-0.249 0.223,-0.416Zm-1.437,-1.961l-0.647,0.971c-0.093,0.139 -0.249,0.222 -0.416,0.222c-0.167,0 -0.323,-0.083 -0.416,-0.222l-0.642,-0.963l2.121,-0.008Zm3.437,-8.004l-9,-0l-0,4.098c-0,0.132 0.053,0.259 0.146,0.353l2.546,2.549l3.601,-0l2.561,-2.561c0.093,-0.094 0.146,-0.221 0.146,-0.353l-0,-4.086Zm0,-2.5l0,1.5c-0,-0 -9,-0 -9,-0c-0,0 -0,-1.5 -0,-1.5c0,-0.276 0.224,-0.5 0.5,-0.5c0,0 8,0 8,0c0.276,0 0.5,0.224 0.5,0.5Z" id="Muslim-man"/></g></svg>